<svg width="119" height="35" viewBox="0 0 119 35" fill="none" xmlns="http://www.w3.org/2000/svg">
<path d="M35.02 28V7.63636H43.0541C44.5986 7.63636 45.9144 7.93134 47.0015 8.52131C48.0886 9.10464 48.9172 9.91667 49.4873 10.9574C50.064 11.9915 50.3524 13.1847 50.3524 14.5369C50.3524 15.8892 50.0607 17.0824 49.4774 18.1165C48.894 19.1506 48.0489 19.956 46.9419 20.5327C45.8415 21.1094 44.5091 21.3977 42.9447 21.3977H37.824V17.9474H42.2487C43.0773 17.9474 43.76 17.8049 44.297 17.5199C44.8405 17.2282 45.2449 16.8272 45.51 16.3168C45.7818 15.7997 45.9177 15.2064 45.9177 14.5369C45.9177 13.8608 45.7818 13.2708 45.51 12.767C45.2449 12.2566 44.8405 11.8622 44.297 11.5838C43.7534 11.2988 43.064 11.1562 42.2288 11.1562H39.3254V28H35.02ZM57.0143 28.2884C56.0399 28.2884 55.1715 28.1193 54.4092 27.7812C53.6469 27.4366 53.0437 26.9295 52.5995 26.2599C52.162 25.5838 51.9433 24.742 51.9433 23.7344C51.9433 22.8859 52.0991 22.1733 52.4106 21.5966C52.7222 21.0199 53.1464 20.5559 53.6833 20.2045C54.2203 19.8532 54.8301 19.5881 55.5129 19.4091C56.2023 19.2301 56.9248 19.1042 57.6805 19.0312C58.5688 18.9384 59.2847 18.8523 59.8282 18.7727C60.3718 18.6866 60.7662 18.5606 61.0115 18.3949C61.2567 18.2292 61.3794 17.9839 61.3794 17.6591V17.5994C61.3794 16.9697 61.1805 16.4825 60.7828 16.1378C60.3917 15.7931 59.8349 15.6207 59.1123 15.6207C58.35 15.6207 57.7435 15.7898 57.2927 16.1278C56.842 16.4593 56.5437 16.8769 56.3978 17.3807L52.4802 17.0625C52.6791 16.1345 53.0702 15.3324 53.6535 14.6562C54.2368 13.9735 54.9892 13.4498 55.9106 13.0852C56.8386 12.714 57.9125 12.5284 59.1322 12.5284C59.9807 12.5284 60.7927 12.6278 61.5683 12.8267C62.3505 13.0256 63.0432 13.3338 63.6464 13.7514C64.2563 14.169 64.7368 14.706 65.0882 15.3622C65.4395 16.0118 65.6152 16.7907 65.6152 17.6989V28H61.5981V25.8821H61.4788C61.2335 26.3594 60.9054 26.7803 60.4944 27.1449C60.0834 27.5028 59.5896 27.7846 59.0129 27.9901C58.4362 28.1889 57.77 28.2884 57.0143 28.2884ZM58.2274 25.3651C58.8505 25.3651 59.4007 25.2424 59.8779 24.9972C60.3552 24.7453 60.7297 24.4072 61.0015 23.983C61.2733 23.5587 61.4092 23.0781 61.4092 22.5412V20.9205C61.2766 21.0066 61.0943 21.0862 60.8623 21.1591C60.6369 21.2254 60.3817 21.2884 60.0967 21.348C59.8117 21.401 59.5266 21.4508 59.2416 21.4972C58.9565 21.5369 58.698 21.5734 58.466 21.6065C57.9689 21.6795 57.5347 21.7955 57.1635 21.9545C56.7922 22.1136 56.5039 22.3291 56.2984 22.6009C56.0929 22.866 55.9902 23.1974 55.9902 23.5952C55.9902 24.1719 56.199 24.6127 56.6166 24.9176C57.0408 25.2159 57.5778 25.3651 58.2274 25.3651ZM75.7821 34.0455C74.4099 34.0455 73.2333 33.8565 72.2522 33.4787C71.2778 33.1075 70.5022 32.6004 69.9255 31.9574C69.3488 31.3144 68.9743 30.5919 68.8019 29.7898L72.7196 29.2628C72.8389 29.5677 73.0278 29.8527 73.2863 30.1179C73.5448 30.383 73.8862 30.5952 74.3105 30.7543C74.7413 30.92 75.265 31.0028 75.8815 31.0028C76.8029 31.0028 77.5619 30.7775 78.1585 30.3267C78.7617 29.8826 79.0633 29.1368 79.0633 28.0895V25.2955H78.8843C78.6987 25.7197 78.4203 26.1207 78.0491 26.4986C77.6779 26.8764 77.2006 27.1847 76.6173 27.4233C76.034 27.6619 75.3379 27.7812 74.5292 27.7812C73.3824 27.7812 72.3384 27.5161 71.3971 26.9858C70.4625 26.4489 69.7167 25.6302 69.1599 24.5298C68.6097 23.4228 68.3346 22.0241 68.3346 20.3338C68.3346 18.6037 68.6163 17.1586 69.1798 15.9986C69.7432 14.8385 70.4923 13.9702 71.4269 13.3935C72.3682 12.8168 73.399 12.5284 74.5193 12.5284C75.3744 12.5284 76.0903 12.6742 76.667 12.9659C77.2437 13.2509 77.7077 13.6089 78.059 14.0398C78.417 14.464 78.6921 14.8816 78.8843 15.2926H79.0434V12.7273H83.2494V28.1491C83.2494 29.4484 82.9312 30.5355 82.2948 31.4105C81.6585 32.2855 80.7769 32.9418 79.65 33.3793C78.5297 33.8234 77.2404 34.0455 75.7821 34.0455ZM75.8715 24.5994C76.5543 24.5994 77.131 24.4304 77.6017 24.0923C78.0789 23.7476 78.4435 23.2571 78.6954 22.6207C78.9539 21.9777 79.0832 21.2088 79.0832 20.3139C79.0832 19.419 78.9572 18.6435 78.7054 17.9872C78.4535 17.3243 78.0889 16.8106 77.6116 16.446C77.1343 16.0814 76.5543 15.8991 75.8715 15.8991C75.1755 15.8991 74.5889 16.0881 74.1116 16.4659C73.6343 16.8371 73.2731 17.3542 73.0278 18.017C72.7825 18.6799 72.6599 19.4455 72.6599 20.3139C72.6599 21.1955 72.7825 21.9579 73.0278 22.6009C73.2797 23.2372 73.641 23.7311 74.1116 24.0824C74.5889 24.4271 75.1755 24.5994 75.8715 24.5994ZM93.5804 28.2983C92.0093 28.2983 90.6571 27.9801 89.5235 27.3438C88.3966 26.7008 87.5283 25.7926 86.9184 24.6193C86.3086 23.4394 86.0037 22.044 86.0037 20.4332C86.0037 18.8622 86.3086 17.4834 86.9184 16.2969C87.5283 15.1103 88.3867 14.1856 89.4937 13.5227C90.6073 12.8598 91.9132 12.5284 93.4113 12.5284C94.4189 12.5284 95.3569 12.6908 96.2252 13.0156C97.1002 13.3338 97.8626 13.8144 98.5122 14.4574C99.1684 15.1004 99.6788 15.9091 100.043 16.8835C100.408 17.8513 100.59 18.9848 100.59 20.2841V21.4474H87.694V18.8224H96.6031C96.6031 18.2126 96.4705 17.6723 96.2054 17.2017C95.9402 16.7311 95.5723 16.3632 95.1017 16.098C94.6376 15.8262 94.0974 15.6903 93.4809 15.6903C92.8379 15.6903 92.2679 15.8395 91.7707 16.1378C91.2802 16.4295 90.8957 16.8239 90.6173 17.321C90.3389 17.8116 90.1964 18.3584 90.1897 18.9616V21.4574C90.1897 22.2131 90.3289 22.866 90.6073 23.4162C90.8924 23.9664 91.2934 24.3906 91.8105 24.6889C92.3275 24.9872 92.9407 25.1364 93.65 25.1364C94.1206 25.1364 94.5515 25.0701 94.9426 24.9375C95.3337 24.8049 95.6684 24.6061 95.9468 24.3409C96.2252 24.0758 96.4374 23.7509 96.5832 23.3665L100.501 23.625C100.302 24.5663 99.8943 25.3883 99.2778 26.0909C98.668 26.7869 97.8791 27.3305 96.9113 27.7216C95.9501 28.1061 94.8398 28.2983 93.5804 28.2983ZM116.062 17.0824L112.184 17.321C112.118 16.9896 111.975 16.6913 111.756 16.4261C111.538 16.1544 111.249 15.9389 110.891 15.7798C110.54 15.6141 110.119 15.5312 109.629 15.5312C108.972 15.5312 108.419 15.6705 107.968 15.9489C107.517 16.2206 107.292 16.5852 107.292 17.0426C107.292 17.4072 107.438 17.7154 107.729 17.9673C108.021 18.2192 108.522 18.4214 109.231 18.5739L111.995 19.1307C113.48 19.4356 114.587 19.9261 115.316 20.6023C116.045 21.2784 116.41 22.1667 116.41 23.267C116.41 24.268 116.115 25.1463 115.525 25.902C114.942 26.6577 114.139 27.2476 113.119 27.6719C112.104 28.0895 110.934 28.2983 109.609 28.2983C107.587 28.2983 105.976 27.8774 104.776 27.0355C103.583 26.187 102.884 25.0336 102.678 23.5753L106.844 23.3565C106.97 23.973 107.275 24.4437 107.759 24.7685C108.243 25.0866 108.863 25.2457 109.619 25.2457C110.361 25.2457 110.958 25.1032 111.408 24.8182C111.866 24.5265 112.098 24.152 112.104 23.6946C112.098 23.3101 111.935 22.9953 111.617 22.75C111.299 22.4981 110.808 22.3059 110.146 22.1733L107.501 21.6463C106.009 21.348 104.899 20.831 104.17 20.0952C103.447 19.3594 103.086 18.4214 103.086 17.2812C103.086 16.3002 103.351 15.455 103.881 14.7457C104.418 14.0365 105.171 13.4896 106.138 13.1051C107.113 12.7206 108.253 12.5284 109.559 12.5284C111.488 12.5284 113.006 12.9361 114.113 13.7514C115.227 14.5668 115.876 15.6771 116.062 17.0824Z" fill="#F5F8FC"/>
<path d="M3.56348 25.4H24.5V3H3.5057C1.57228 3.00642 0.00635613 4.58725 0 6.53908V27.1646H0.00057783C0.00057783 27.1733 0 27.1821 0 27.1908C0 29.2558 1.60521 31 3.5057 31H24.5V29.1333H3.5057C2.63895 29.1333 1.84906 28.2076 1.84906 27.1908C1.84906 26.2202 2.63433 25.4 3.56348 25.4ZM5.54717 4.88592H11.0943V14.9671L8.29764 12.4885L5.54717 14.9525V4.88592ZM1.84906 6.55367C1.84617 5.62617 2.58695 4.87192 3.5057 4.86667H3.69811H5.54717H3.69811V17.4667H5.52637L8.30458 14.9782L11.1117 17.4667H12.9434V4.86667H22.6509V23.5333H5.55179H3.70274H3.56348C2.96196 23.5333 2.37141 23.692 1.84963 23.993V6.55367H1.84906Z" fill="#FFCA42"/>
</svg>
