<svg width="744" height="387" viewBox="0 0 744 387" fill="none" xmlns="http://www.w3.org/2000/svg">
<path d="M33.008 59.8H39.056V61H31.728V50.44H33.008V59.8ZM45.1715 50.28C46.1742 50.28 47.0382 50.504 47.7635 50.952C48.4995 51.3893 49.0648 52.0133 49.4595 52.824C49.8648 53.6347 50.0675 54.6 50.0675 55.72C50.0675 56.84 49.8648 57.8053 49.4595 58.616C49.0648 59.4267 48.4995 60.056 47.7635 60.504C47.0382 60.9413 46.1742 61.16 45.1715 61.16C44.1688 61.16 43.2995 60.9413 42.5635 60.504C41.8382 60.056 41.2728 59.4267 40.8675 58.616C40.4728 57.8053 40.2755 56.84 40.2755 55.72C40.2755 54.6 40.4728 53.6347 40.8675 52.824C41.2728 52.0133 41.8382 51.3893 42.5635 50.952C43.2995 50.504 44.1688 50.28 45.1715 50.28ZM45.1715 51.48C44.4462 51.48 43.8168 51.6507 43.2835 51.992C42.7502 52.3227 42.3395 52.808 42.0515 53.448C41.7635 54.0773 41.6195 54.8347 41.6195 55.72C41.6195 56.6053 41.7635 57.368 42.0515 58.008C42.3395 58.6373 42.7502 59.1227 43.2835 59.464C43.8168 59.7947 44.4462 59.96 45.1715 59.96C45.9075 59.96 46.5368 59.7947 47.0595 59.464C47.5928 59.1227 48.0035 58.6373 48.2915 58.008C48.5795 57.368 48.7235 56.6053 48.7235 55.72C48.7235 54.8347 48.5795 54.0773 48.2915 53.448C48.0035 52.808 47.5928 52.3227 47.0595 51.992C46.5368 51.6507 45.9075 51.48 45.1715 51.48ZM56.8843 50.44C57.9616 50.44 58.8256 50.7173 59.4763 51.272C60.1269 51.8267 60.4523 52.5787 60.4523 53.528C60.4523 54.4773 60.1216 55.2187 59.4603 55.752C58.8096 56.2747 57.9456 56.536 56.8683 56.536L56.7563 56.616H54.1643V61H52.8843V50.44H56.8843ZM56.8683 55.416C57.6256 55.416 58.1856 55.2613 58.5483 54.952C58.9216 54.632 59.1083 54.1573 59.1083 53.528C59.1083 52.8987 58.9216 52.4293 58.5483 52.12C58.1856 51.8 57.6256 51.64 56.8683 51.64H54.1643V55.416H56.8683ZM57.6043 55.672L61.0923 61H59.5723L56.5323 56.376L57.6043 55.672ZM63.5249 61V50.44H70.9329V51.64H64.8049V55.048H69.5729V56.248H64.8049V59.8H71.1729V61H63.5249ZM83.936 50.44V61H82.72V54.36L82.864 51.576H82.848L79.376 61H78.288L74.816 51.576H74.8L74.944 54.36V61H73.728V50.44H75.696L78.016 56.856L78.816 59.496H78.848L79.664 56.872L81.968 50.44H83.936ZM94.1174 50.44V61H92.8374V50.44H94.1174ZM101.3 50.44C102.014 50.44 102.633 50.5733 103.156 50.84C103.689 51.096 104.105 51.464 104.404 51.944C104.702 52.424 104.852 52.9947 104.852 53.656C104.852 54.3173 104.702 54.888 104.404 55.368C104.105 55.848 103.689 56.2213 103.156 56.488C102.633 56.744 102.014 56.872 101.3 56.872H98.8518V61H97.5718V50.44H101.3ZM101.108 55.672C101.94 55.672 102.548 55.5013 102.932 55.16C103.316 54.808 103.508 54.3067 103.508 53.656C103.508 52.9947 103.316 52.4933 102.932 52.152C102.548 51.8107 101.94 51.64 101.108 51.64H98.8518V55.672H101.108ZM110.729 50.28C111.657 50.28 112.457 50.472 113.129 50.856C113.801 51.2293 114.361 51.784 114.809 52.52L113.737 53.352C113.343 52.6693 112.895 52.1893 112.393 51.912C111.903 51.624 111.305 51.48 110.601 51.48C110.036 51.48 109.567 51.56 109.193 51.72C108.831 51.88 108.564 52.0933 108.393 52.36C108.223 52.616 108.137 52.9093 108.137 53.24C108.137 53.6133 108.255 53.944 108.489 54.232C108.724 54.5093 109.193 54.728 109.897 54.888L112.185 55.4C113.199 55.624 113.903 55.9653 114.297 56.424C114.703 56.872 114.905 57.432 114.905 58.104C114.905 58.7013 114.735 59.2347 114.393 59.704C114.063 60.1627 113.593 60.52 112.985 60.776C112.377 61.032 111.663 61.16 110.841 61.16C110.073 61.16 109.396 61.0587 108.809 60.856C108.233 60.6427 107.737 60.36 107.321 60.008C106.905 59.656 106.564 59.2613 106.297 58.824L107.417 57.912C107.62 58.3173 107.881 58.6747 108.201 58.984C108.521 59.2933 108.905 59.5333 109.353 59.704C109.812 59.8747 110.335 59.96 110.921 59.96C111.465 59.96 111.935 59.896 112.329 59.768C112.735 59.6293 113.044 59.432 113.257 59.176C113.471 58.9093 113.577 58.5893 113.577 58.216C113.577 57.8747 113.465 57.5707 113.241 57.304C113.017 57.0267 112.596 56.8187 111.977 56.68L109.497 56.12C108.847 55.9707 108.319 55.768 107.913 55.512C107.519 55.2453 107.231 54.936 107.049 54.584C106.879 54.2213 106.793 53.832 106.793 53.416C106.793 52.8507 106.948 52.3333 107.257 51.864C107.577 51.384 108.031 51 108.617 50.712C109.215 50.424 109.919 50.28 110.729 50.28ZM125.667 50.44V57.064C125.667 58.4187 125.31 59.4427 124.595 60.136C123.881 60.8187 122.857 61.16 121.523 61.16C120.201 61.16 119.177 60.8187 118.451 60.136C117.737 59.4427 117.379 58.4187 117.379 57.064V50.44H118.659V56.744C118.659 57.8427 118.889 58.6533 119.347 59.176C119.817 59.6987 120.542 59.96 121.523 59.96C122.505 59.96 123.225 59.6987 123.683 59.176C124.153 58.6533 124.387 57.8427 124.387 56.744V50.44H125.667ZM139.124 50.44V61H137.908V54.36L138.052 51.576H138.036L134.564 61H133.476L130.004 51.576H129.988L130.132 54.36V61H128.916V50.44H130.884L133.204 56.856L134.004 59.496H134.036L134.852 56.872L137.156 50.44H139.124Z" fill="white"/>
<path d="M126 2L2 2V193.5V385H126" stroke="#FCD54C" stroke-width="4"/>
<path d="M41.712 167L32.88 99.8H45.456L51.984 158.168H53.712L62.16 99.8H84.048L92.496 158.168H94.224L100.752 99.8H113.328L104.496 167H82.608L73.968 107.288H72.24L63.6 167H41.712ZM144.104 168.344C139.368 168.344 135.176 167.352 131.528 165.368C127.944 163.32 125.128 160.472 123.08 156.824C121.096 153.112 120.104 148.76 120.104 143.768V142.616C120.104 137.624 121.096 133.304 123.08 129.656C125.064 125.944 127.848 123.096 131.432 121.112C135.016 119.064 139.176 118.04 143.911 118.04C148.584 118.04 152.648 119.096 156.104 121.208C159.56 123.256 162.248 126.136 164.167 129.848C166.088 133.496 167.048 137.752 167.048 142.616V146.744H132.392C132.52 150.008 133.736 152.664 136.04 154.712C138.344 156.76 141.16 157.784 144.488 157.784C147.88 157.784 150.376 157.048 151.976 155.576C153.576 154.104 154.792 152.472 155.624 150.68L165.512 155.864C164.616 157.528 163.304 159.352 161.576 161.336C159.912 163.256 157.672 164.92 154.856 166.328C152.04 167.672 148.456 168.344 144.104 168.344ZM132.488 137.72H154.76C154.504 134.968 153.384 132.76 151.4 131.096C149.48 129.432 146.952 128.6 143.816 128.6C140.552 128.6 137.96 129.432 136.04 131.096C134.12 132.76 132.936 134.968 132.488 137.72ZM177.814 167V99.8H189.91V167H177.814ZM225.682 168.344C221.074 168.344 216.882 167.384 213.106 165.464C209.394 163.544 206.45 160.76 204.274 157.112C202.098 153.464 201.01 149.048 201.01 143.864V142.52C201.01 137.336 202.098 132.92 204.274 129.272C206.45 125.624 209.394 122.84 213.106 120.92C216.882 119 221.074 118.04 225.682 118.04C230.226 118.04 234.13 118.84 237.394 120.44C240.658 122.04 243.282 124.248 245.266 127.064C247.314 129.816 248.658 132.952 249.298 136.472L237.586 138.968C237.33 137.048 236.754 135.32 235.858 133.784C234.962 132.248 233.682 131.032 232.018 130.136C230.418 129.24 228.402 128.792 225.97 128.792C223.538 128.792 221.33 129.336 219.346 130.424C217.426 131.448 215.89 133.016 214.738 135.128C213.65 137.176 213.106 139.704 213.106 142.712V143.672C213.106 146.68 213.65 149.24 214.738 151.352C215.89 153.4 217.426 154.968 219.346 156.056C221.33 157.08 223.538 157.592 225.97 157.592C229.618 157.592 232.37 156.664 234.226 154.808C236.146 152.888 237.362 150.392 237.874 147.32L249.586 150.104C248.754 153.496 247.314 156.6 245.266 159.416C243.282 162.168 240.658 164.344 237.394 165.944C234.13 167.544 230.226 168.344 225.682 168.344ZM282.22 168.344C277.484 168.344 273.228 167.384 269.452 165.464C265.676 163.544 262.7 160.76 260.524 157.112C258.348 153.464 257.26 149.08 257.26 143.96V142.424C257.26 137.304 258.348 132.92 260.524 129.272C262.7 125.624 265.676 122.84 269.452 120.92C273.228 119 277.484 118.04 282.22 118.04C286.956 118.04 291.212 119 294.988 120.92C298.764 122.84 301.74 125.624 303.916 129.272C306.092 132.92 307.18 137.304 307.18 142.424V143.96C307.18 149.08 306.092 153.464 303.916 157.112C301.74 160.76 298.764 163.544 294.988 165.464C291.212 167.384 286.956 168.344 282.22 168.344ZM282.22 157.592C285.932 157.592 289.004 156.408 291.436 154.04C293.868 151.608 295.084 148.152 295.084 143.672V142.712C295.084 138.232 293.868 134.808 291.436 132.44C289.068 130.008 285.996 128.792 282.22 128.792C278.508 128.792 275.436 130.008 273.004 132.44C270.572 134.808 269.356 138.232 269.356 142.712V143.672C269.356 148.152 270.572 151.608 273.004 154.04C275.436 156.408 278.508 157.592 282.22 157.592ZM318.345 167V119.384H330.249V124.568H331.977C332.809 122.968 334.185 121.592 336.105 120.44C338.025 119.224 340.553 118.616 343.689 118.616C347.081 118.616 349.801 119.288 351.849 120.632C353.897 121.912 355.465 123.608 356.553 125.72H358.281C359.369 123.672 360.905 121.976 362.889 120.632C364.873 119.288 367.689 118.616 371.337 118.616C374.281 118.616 376.937 119.256 379.305 120.536C381.737 121.752 383.657 123.64 385.065 126.2C386.537 128.696 387.273 131.864 387.273 135.704V167H375.177V136.568C375.177 133.944 374.505 131.992 373.161 130.712C371.817 129.368 369.929 128.696 367.497 128.696C364.745 128.696 362.601 129.592 361.065 131.384C359.593 133.112 358.857 135.608 358.857 138.872V167H346.761V136.568C346.761 133.944 346.089 131.992 344.745 130.712C343.401 129.368 341.513 128.696 339.081 128.696C336.329 128.696 334.185 129.592 332.649 131.384C331.177 133.112 330.441 135.608 330.441 138.872V167H318.345ZM421.979 168.344C417.243 168.344 413.051 167.352 409.403 165.368C405.819 163.32 403.003 160.472 400.955 156.824C398.971 153.112 397.979 148.76 397.979 143.768V142.616C397.979 137.624 398.971 133.304 400.955 129.656C402.939 125.944 405.723 123.096 409.307 121.112C412.891 119.064 417.051 118.04 421.786 118.04C426.459 118.04 430.523 119.096 433.979 121.208C437.435 123.256 440.123 126.136 442.042 129.848C443.963 133.496 444.923 137.752 444.923 142.616V146.744H410.267C410.395 150.008 411.611 152.664 413.915 154.712C416.219 156.76 419.035 157.784 422.363 157.784C425.755 157.784 428.251 157.048 429.851 155.576C431.451 154.104 432.667 152.472 433.499 150.68L443.387 155.864C442.491 157.528 441.179 159.352 439.451 161.336C437.787 163.256 435.547 164.92 432.731 166.328C429.915 167.672 426.331 168.344 421.979 168.344ZM410.363 137.72H432.635C432.379 134.968 431.259 132.76 429.275 131.096C427.355 129.432 424.827 128.6 421.691 128.6C418.427 128.6 415.835 129.432 413.915 131.096C411.995 132.76 410.811 134.968 410.363 137.72ZM479.68 167V99.8H492.352V127.544H517.312V99.8H529.984V167H517.312V139.064H492.352V167H479.68ZM565.72 168.344C560.984 168.344 556.728 167.384 552.952 165.464C549.176 163.544 546.2 160.76 544.024 157.112C541.848 153.464 540.76 149.08 540.76 143.96V142.424C540.76 137.304 541.848 132.92 544.024 129.272C546.2 125.624 549.176 122.84 552.952 120.92C556.728 119 560.984 118.04 565.72 118.04C570.456 118.04 574.712 119 578.488 120.92C582.264 122.84 585.24 125.624 587.416 129.272C589.592 132.92 590.68 137.304 590.68 142.424V143.96C590.68 149.08 589.592 153.464 587.416 157.112C585.24 160.76 582.264 163.544 578.488 165.464C574.712 167.384 570.456 168.344 565.72 168.344ZM565.72 157.592C569.432 157.592 572.504 156.408 574.936 154.04C577.368 151.608 578.584 148.152 578.584 143.672V142.712C578.584 138.232 577.368 134.808 574.936 132.44C572.568 130.008 569.496 128.792 565.72 128.792C562.008 128.792 558.936 130.008 556.504 132.44C554.072 134.808 552.856 138.232 552.856 142.712V143.672C552.856 148.152 554.072 151.608 556.504 154.04C558.936 156.408 562.008 157.592 565.72 157.592ZM601.845 167V119.384H613.749V124.568H615.477C616.309 122.968 617.685 121.592 619.605 120.44C621.525 119.224 624.053 118.616 627.189 118.616C630.581 118.616 633.301 119.288 635.349 120.632C637.397 121.912 638.965 123.608 640.053 125.72H641.781C642.869 123.672 644.405 121.976 646.389 120.632C648.373 119.288 651.189 118.616 654.837 118.616C657.781 118.616 660.437 119.256 662.805 120.536C665.237 121.752 667.157 123.64 668.565 126.2C670.037 128.696 670.773 131.864 670.773 135.704V167H658.677V136.568C658.677 133.944 658.005 131.992 656.661 130.712C655.317 129.368 653.429 128.696 650.997 128.696C648.245 128.696 646.101 129.592 644.565 131.384C643.093 133.112 642.357 135.608 642.357 138.872V167H630.261V136.568C630.261 133.944 629.589 131.992 628.245 130.712C626.901 129.368 625.013 128.696 622.581 128.696C619.829 128.696 617.685 129.592 616.149 131.384C614.677 133.112 613.941 135.608 613.941 138.872V167H601.845ZM705.479 168.344C700.743 168.344 696.551 167.352 692.903 165.368C689.319 163.32 686.503 160.472 684.455 156.824C682.471 153.112 681.479 148.76 681.479 143.768V142.616C681.479 137.624 682.471 133.304 684.455 129.656C686.439 125.944 689.223 123.096 692.807 121.112C696.391 119.064 700.551 118.04 705.286 118.04C709.959 118.04 714.023 119.096 717.479 121.208C720.935 123.256 723.623 126.136 725.542 129.848C727.463 133.496 728.423 137.752 728.423 142.616V146.744H693.767C693.895 150.008 695.111 152.664 697.415 154.712C699.719 156.76 702.535 157.784 705.863 157.784C709.255 157.784 711.751 157.048 713.351 155.576C714.951 154.104 716.167 152.472 716.999 150.68L726.887 155.864C725.991 157.528 724.679 159.352 722.951 161.336C721.287 163.256 719.047 164.92 716.231 166.328C713.415 167.672 709.831 168.344 705.479 168.344ZM693.863 137.72H716.135C715.879 134.968 714.759 132.76 712.775 131.096C710.855 129.432 708.327 128.6 705.191 128.6C701.927 128.6 699.335 129.432 697.415 131.096C695.495 132.76 694.311 134.968 693.863 137.72ZM166.93 267V199.8H179.602V255.48H210.322V267H166.93ZM237.489 267.768C233.777 267.768 230.513 266.936 227.697 265.272C224.945 263.544 222.801 261.176 221.265 258.168C219.729 255.16 218.961 251.704 218.961 247.8V219.384H231.057V246.84C231.057 250.424 231.921 253.112 233.649 254.904C235.441 256.696 237.969 257.592 241.233 257.592C244.945 257.592 247.825 256.376 249.873 253.944C251.921 251.448 252.945 247.992 252.945 243.576V219.384H265.041V267H253.137V260.76H251.409C250.641 262.36 249.201 263.928 247.089 265.464C244.977 267 241.777 267.768 237.489 267.768ZM274.277 267L291.557 243L274.469 219.384H288.485L299.333 235.224H301.061L311.909 219.384H325.925L308.837 243L326.117 267H311.909L301.061 250.968H299.333L288.485 267H274.277ZM353.458 267.768C349.746 267.768 346.482 266.936 343.666 265.272C340.914 263.544 338.77 261.176 337.234 258.168C335.698 255.16 334.93 251.704 334.93 247.8V219.384H347.026V246.84C347.026 250.424 347.89 253.112 349.618 254.904C351.41 256.696 353.938 257.592 357.202 257.592C360.914 257.592 363.794 256.376 365.842 253.944C367.89 251.448 368.914 247.992 368.914 243.576V219.384H381.01V267H369.106V260.76H367.378C366.61 262.36 365.17 263.928 363.058 265.464C360.946 267 357.746 267.768 353.458 267.768ZM394.47 267V219.384H406.374V224.76H408.102C408.806 222.84 409.958 221.432 411.558 220.536C413.222 219.64 415.142 219.192 417.318 219.192H423.078V229.944H417.126C414.054 229.944 411.526 230.776 409.542 232.44C407.558 234.04 406.566 236.536 406.566 239.928V267H394.47ZM437.717 286.2V275.64H463.637C465.429 275.64 466.325 274.68 466.325 272.76V260.76H464.597C464.085 261.848 463.285 262.936 462.197 264.024C461.109 265.112 459.637 266.008 457.781 266.712C455.925 267.416 453.557 267.768 450.677 267.768C446.965 267.768 443.701 266.936 440.885 265.272C438.133 263.544 435.989 261.176 434.453 258.168C432.917 255.16 432.148 251.704 432.148 247.8V219.384H444.245V246.84C444.245 250.424 445.109 253.112 446.837 254.904C448.629 256.696 451.157 257.592 454.421 257.592C458.133 257.592 461.013 256.376 463.061 253.944C465.109 251.448 466.133 247.992 466.133 243.576V219.384H478.229V275.448C478.229 278.712 477.269 281.304 475.349 283.224C473.429 285.208 470.869 286.2 467.669 286.2H437.717Z" fill="white"/>
<path d="M51.888 267V211.32H32.304V199.8H84.144V211.32H64.56V267H51.888ZM106.814 268.344C102.078 268.344 97.8215 267.384 94.0455 265.464C90.2695 263.544 87.2935 260.76 85.1175 257.112C82.9415 253.464 81.8535 249.08 81.8535 243.96V242.424C81.8535 237.304 82.9415 232.92 85.1175 229.272C87.2935 225.624 90.2695 222.84 94.0455 220.92C97.8215 219 102.078 218.04 106.814 218.04C111.55 218.04 115.806 219 119.582 220.92C123.358 222.84 126.334 225.624 128.51 229.272C130.686 232.92 131.774 237.304 131.774 242.424V243.96C131.774 249.08 130.686 253.464 128.51 257.112C126.334 260.76 123.358 263.544 119.582 265.464C115.806 267.384 111.55 268.344 106.814 268.344ZM106.814 257.592C110.526 257.592 113.598 256.408 116.03 254.04C118.462 251.608 119.678 248.152 119.678 243.672V242.712C119.678 238.232 118.462 234.808 116.03 232.44C113.662 230.008 110.59 228.792 106.814 228.792C103.102 228.792 100.03 230.008 97.5975 232.44C95.1655 234.808 93.9495 238.232 93.9495 242.712V243.672C93.9495 248.152 95.1655 251.608 97.5975 254.04C100.03 256.408 103.102 257.592 106.814 257.592Z" fill="#FCD54C"/>
<path d="M31.46 329V315.8H37.88C39.5067 315.813 40.7067 316.127 41.48 316.74C42.2533 317.34 42.64 318.213 42.64 319.36C42.64 320.107 42.42 320.753 41.98 321.3C41.54 321.833 40.8667 322.173 39.96 322.32V322.34C40.9733 322.473 41.7267 322.827 42.22 323.4C42.7267 323.96 42.98 324.64 42.98 325.44C42.98 326.573 42.58 327.453 41.78 328.08C40.98 328.693 39.78 329 38.18 329H31.46ZM34.78 326.58H37.6C38.2267 326.58 38.6933 326.453 39 326.2C39.3067 325.947 39.46 325.58 39.46 325.1C39.46 324.633 39.3067 324.28 39 324.04C38.6933 323.787 38.2267 323.66 37.6 323.66H34.78V326.58ZM34.78 321.2H37.28C38.5067 321.2 39.12 320.72 39.12 319.76C39.12 318.8 38.5067 318.32 37.28 318.32H34.78V321.2ZM49.6519 318.8C50.7052 318.8 51.6252 319.007 52.4119 319.42C53.2119 319.82 53.8319 320.413 54.2719 321.2C54.7252 321.973 54.9519 322.907 54.9519 324C54.9519 325.093 54.7252 326.033 54.2719 326.82C53.8319 327.593 53.2119 328.187 52.4119 328.6C51.6252 329 50.7052 329.2 49.6519 329.2C48.6252 329.2 47.7119 329 46.9119 328.6C46.1119 328.187 45.4852 327.593 45.0319 326.82C44.5919 326.033 44.3719 325.093 44.3719 324C44.3719 322.907 44.5919 321.973 45.0319 321.2C45.4852 320.413 46.1119 319.82 46.9119 319.42C47.7119 319.007 48.6252 318.8 49.6519 318.8ZM49.6519 321.22C49.2652 321.22 48.9319 321.313 48.6519 321.5C48.3719 321.687 48.1585 321.987 48.0119 322.4C47.8652 322.813 47.7919 323.347 47.7919 324C47.7919 324.653 47.8652 325.187 48.0119 325.6C48.1585 326 48.3719 326.3 48.6519 326.5C48.9319 326.687 49.2652 326.78 49.6519 326.78C50.0519 326.78 50.3919 326.687 50.6719 326.5C50.9519 326.3 51.1652 326 51.3119 325.6C51.4585 325.187 51.5319 324.653 51.5319 324C51.5319 323.347 51.4585 322.813 51.3119 322.4C51.1652 321.987 50.9519 321.687 50.6719 321.5C50.3919 321.313 50.0519 321.22 49.6519 321.22ZM61.6245 318.8C62.6779 318.8 63.5979 319.007 64.3845 319.42C65.1845 319.82 65.8045 320.413 66.2445 321.2C66.6979 321.973 66.9245 322.907 66.9245 324C66.9245 325.093 66.6979 326.033 66.2445 326.82C65.8045 327.593 65.1845 328.187 64.3845 328.6C63.5979 329 62.6779 329.2 61.6245 329.2C60.5979 329.2 59.6845 329 58.8845 328.6C58.0845 328.187 57.4579 327.593 57.0045 326.82C56.5645 326.033 56.3445 325.093 56.3445 324C56.3445 322.907 56.5645 321.973 57.0045 321.2C57.4579 320.413 58.0845 319.82 58.8845 319.42C59.6845 319.007 60.5979 318.8 61.6245 318.8ZM61.6245 321.22C61.2379 321.22 60.9045 321.313 60.6245 321.5C60.3445 321.687 60.1312 321.987 59.9845 322.4C59.8379 322.813 59.7645 323.347 59.7645 324C59.7645 324.653 59.8379 325.187 59.9845 325.6C60.1312 326 60.3445 326.3 60.6245 326.5C60.9045 326.687 61.2379 326.78 61.6245 326.78C62.0245 326.78 62.3645 326.687 62.6445 326.5C62.9245 326.3 63.1379 326 63.2845 325.6C63.4312 325.187 63.5045 324.653 63.5045 324C63.5045 323.347 63.4312 322.813 63.2845 322.4C63.1379 321.987 62.9245 321.687 62.6445 321.5C62.3645 321.313 62.0245 321.22 61.6245 321.22ZM79.8172 319L75.0172 324.12L74.3772 324.3L71.5172 327.5L71.4972 324.02L76.0372 319H79.8172ZM72.2372 314.76V329H68.8372V314.76H72.2372ZM75.5372 322L80.0372 329H76.2772L73.3172 324L75.5372 322ZM92.2688 322.66C92.2688 322.193 92.1354 321.827 91.8688 321.56C91.6154 321.28 91.2688 321.14 90.8288 321.14C90.3888 321.14 90.0088 321.253 89.6888 321.48C89.3821 321.693 89.1688 322.08 89.0488 322.64L86.1688 321.96C86.3554 321 86.8488 320.233 87.6488 319.66C88.4488 319.087 89.5754 318.8 91.0288 318.8C92.0021 318.8 92.8288 318.947 93.5088 319.24C94.2021 319.52 94.7288 319.947 95.0888 320.52C95.4621 321.08 95.6488 321.773 95.6488 322.6V326.26C95.6488 326.78 95.8821 327.04 96.3488 327.04C96.5888 327.04 96.7821 327.013 96.9288 326.96L96.7288 328.9C96.3288 329.087 95.8421 329.18 95.2688 329.18C94.7488 329.18 94.2888 329.1 93.8888 328.94C93.4888 328.767 93.1754 328.513 92.9488 328.18C92.7221 327.833 92.6088 327.4 92.6088 326.88V326.76L92.9888 326.62C92.9888 327.193 92.8154 327.673 92.4688 328.06C92.1354 328.447 91.6954 328.733 91.1488 328.92C90.6154 329.107 90.0554 329.2 89.4688 329.2C88.7888 329.2 88.1954 329.093 87.6888 328.88C87.1821 328.667 86.7888 328.36 86.5088 327.96C86.2421 327.547 86.1088 327.04 86.1088 326.44C86.1088 325.72 86.3221 325.127 86.7488 324.66C87.1888 324.18 87.8754 323.847 88.8088 323.66L92.5888 322.88L92.5688 324.68L90.6488 325.08C90.2488 325.16 89.9488 325.28 89.7488 325.44C89.5621 325.587 89.4688 325.813 89.4688 326.12C89.4688 326.413 89.5754 326.633 89.7888 326.78C90.0021 326.927 90.2554 327 90.5488 327C90.7754 327 90.9888 326.967 91.1888 326.9C91.4021 326.833 91.5888 326.733 91.7488 326.6C91.9088 326.453 92.0354 326.273 92.1288 326.06C92.2221 325.847 92.2688 325.593 92.2688 325.3V322.66ZM108.538 318.8C109.551 318.8 110.391 318.947 111.058 319.24C111.738 319.52 112.265 319.9 112.638 320.38C113.025 320.847 113.265 321.353 113.358 321.9L110.218 322.94C110.125 322.367 109.951 321.94 109.698 321.66C109.458 321.367 109.105 321.22 108.638 321.22C108.211 321.22 107.851 321.32 107.558 321.52C107.278 321.707 107.065 322.013 106.918 322.44C106.771 322.853 106.698 323.387 106.698 324.04C106.698 324.693 106.778 325.227 106.938 325.64C107.098 326.04 107.325 326.333 107.618 326.52C107.911 326.693 108.258 326.78 108.658 326.78C108.991 326.78 109.265 326.72 109.478 326.6C109.705 326.467 109.891 326.28 110.038 326.04C110.185 325.8 110.278 325.507 110.318 325.16L113.378 326.14C113.285 326.727 113.031 327.253 112.618 327.72C112.218 328.173 111.685 328.533 111.018 328.8C110.351 329.067 109.571 329.2 108.678 329.2C107.585 329.2 106.631 329 105.818 328.6C105.005 328.187 104.378 327.593 103.938 326.82C103.498 326.033 103.278 325.093 103.278 324C103.278 322.907 103.498 321.973 103.938 321.2C104.378 320.413 104.991 319.82 105.778 319.42C106.578 319.007 107.498 318.8 108.538 318.8ZM119.906 318.8C120.959 318.8 121.879 319.007 122.666 319.42C123.466 319.82 124.086 320.413 124.526 321.2C124.979 321.973 125.206 322.907 125.206 324C125.206 325.093 124.979 326.033 124.526 326.82C124.086 327.593 123.466 328.187 122.666 328.6C121.879 329 120.959 329.2 119.906 329.2C118.879 329.2 117.966 329 117.166 328.6C116.366 328.187 115.739 327.593 115.286 326.82C114.846 326.033 114.626 325.093 114.626 324C114.626 322.907 114.846 321.973 115.286 321.2C115.739 320.413 116.366 319.82 117.166 319.42C117.966 319.007 118.879 318.8 119.906 318.8ZM119.906 321.22C119.519 321.22 119.186 321.313 118.906 321.5C118.626 321.687 118.412 321.987 118.266 322.4C118.119 322.813 118.046 323.347 118.046 324C118.046 324.653 118.119 325.187 118.266 325.6C118.412 326 118.626 326.3 118.906 326.5C119.186 326.687 119.519 326.78 119.906 326.78C120.306 326.78 120.646 326.687 120.926 326.5C121.206 326.3 121.419 326 121.566 325.6C121.712 325.187 121.786 324.653 121.786 324C121.786 323.347 121.712 322.813 121.566 322.4C121.419 321.987 121.206 321.687 120.926 321.5C120.646 321.313 120.306 321.22 119.906 321.22ZM127.118 329V319H130.158L130.338 322.44L129.958 322.06C130.092 321.34 130.325 320.74 130.658 320.26C131.005 319.78 131.432 319.42 131.938 319.18C132.458 318.927 133.038 318.8 133.678 318.8C134.372 318.8 134.972 318.933 135.478 319.2C135.998 319.467 136.405 319.86 136.698 320.38C136.992 320.9 137.138 321.553 137.138 322.34V329H133.738V323.24C133.738 322.547 133.605 322.067 133.338 321.8C133.072 321.533 132.732 321.4 132.318 321.4C131.998 321.4 131.698 321.48 131.418 321.64C131.138 321.787 130.918 322.027 130.758 322.36C130.598 322.693 130.518 323.14 130.518 323.7V329H127.118ZM143.721 329.2C142.721 329.2 141.787 329.04 140.921 328.72C140.067 328.387 139.361 327.913 138.801 327.3L140.401 325.42C140.734 325.847 141.174 326.207 141.721 326.5C142.281 326.78 142.901 326.92 143.581 326.92C143.994 326.92 144.334 326.86 144.601 326.74C144.867 326.62 145.001 326.433 145.001 326.18C145.001 325.993 144.934 325.847 144.801 325.74C144.667 325.62 144.401 325.52 144.001 325.44L142.601 325.16C141.347 324.907 140.454 324.533 139.921 324.04C139.401 323.533 139.141 322.873 139.141 322.06C139.141 321.513 139.307 320.993 139.641 320.5C139.974 319.993 140.487 319.587 141.181 319.28C141.874 318.96 142.761 318.8 143.841 318.8C144.854 318.8 145.747 318.947 146.521 319.24C147.294 319.533 147.907 319.96 148.361 320.52L146.741 322.36C146.421 321.96 146.007 321.647 145.501 321.42C144.994 321.193 144.487 321.08 143.981 321.08C143.661 321.08 143.387 321.113 143.161 321.18C142.947 321.233 142.787 321.313 142.681 321.42C142.574 321.527 142.521 321.66 142.521 321.82C142.521 321.993 142.601 322.147 142.761 322.28C142.934 322.4 143.247 322.507 143.701 322.6L145.521 322.96C146.547 323.147 147.287 323.487 147.741 323.98C148.194 324.473 148.421 325.067 148.421 325.76C148.421 326.413 148.247 327 147.901 327.52C147.554 328.04 147.034 328.453 146.341 328.76C145.647 329.053 144.774 329.2 143.721 329.2ZM153.565 329.2C152.885 329.2 152.285 329.087 151.765 328.86C151.258 328.62 150.858 328.24 150.565 327.72C150.272 327.2 150.125 326.52 150.125 325.68V319H153.525V324.88C153.525 325.52 153.652 325.967 153.905 326.22C154.158 326.473 154.518 326.6 154.985 326.6C155.225 326.6 155.452 326.56 155.665 326.48C155.878 326.387 156.065 326.253 156.225 326.08C156.385 325.893 156.505 325.66 156.585 325.38C156.678 325.087 156.725 324.747 156.725 324.36V319H160.125V329H157.085L156.985 327.12C156.665 327.827 156.218 328.353 155.645 328.7C155.072 329.033 154.378 329.2 153.565 329.2ZM165.928 314.76V325.6C165.928 326.04 166.001 326.353 166.148 326.54C166.294 326.727 166.541 326.82 166.888 326.82C167.088 326.82 167.254 326.807 167.388 326.78C167.521 326.753 167.681 326.713 167.868 326.66L167.648 328.7C167.408 328.847 167.094 328.967 166.708 329.06C166.321 329.153 165.941 329.2 165.568 329.2C164.501 329.2 163.728 328.953 163.248 328.46C162.768 327.967 162.528 327.16 162.528 326.04V314.76H165.928ZM172.959 315.82V325.44C172.959 325.92 173.072 326.267 173.299 326.48C173.539 326.68 173.865 326.78 174.279 326.78C174.599 326.78 174.872 326.747 175.099 326.68C175.339 326.6 175.552 326.487 175.739 326.34L176.099 328.44C175.765 328.68 175.345 328.867 174.839 329C174.332 329.133 173.812 329.2 173.279 329.2C172.519 329.2 171.859 329.093 171.299 328.88C170.752 328.667 170.325 328.327 170.019 327.86C169.725 327.393 169.572 326.773 169.559 326V316.76L172.959 315.82ZM175.939 319V321.42H167.839V319H175.939ZM183.265 322.66C183.265 322.193 183.132 321.827 182.865 321.56C182.612 321.28 182.265 321.14 181.825 321.14C181.385 321.14 181.005 321.253 180.685 321.48C180.378 321.693 180.165 322.08 180.045 322.64L177.165 321.96C177.352 321 177.845 320.233 178.645 319.66C179.445 319.087 180.572 318.8 182.025 318.8C182.998 318.8 183.825 318.947 184.505 319.24C185.198 319.52 185.725 319.947 186.085 320.52C186.458 321.08 186.645 321.773 186.645 322.6V326.26C186.645 326.78 186.878 327.04 187.345 327.04C187.585 327.04 187.778 327.013 187.925 326.96L187.725 328.9C187.325 329.087 186.838 329.18 186.265 329.18C185.745 329.18 185.285 329.1 184.885 328.94C184.485 328.767 184.172 328.513 183.945 328.18C183.718 327.833 183.605 327.4 183.605 326.88V326.76L183.985 326.62C183.985 327.193 183.812 327.673 183.465 328.06C183.132 328.447 182.692 328.733 182.145 328.92C181.612 329.107 181.052 329.2 180.465 329.2C179.785 329.2 179.192 329.093 178.685 328.88C178.178 328.667 177.785 328.36 177.505 327.96C177.238 327.547 177.105 327.04 177.105 326.44C177.105 325.72 177.318 325.127 177.745 324.66C178.185 324.18 178.872 323.847 179.805 323.66L183.585 322.88L183.565 324.68L181.645 325.08C181.245 325.16 180.945 325.28 180.745 325.44C180.558 325.587 180.465 325.813 180.465 326.12C180.465 326.413 180.572 326.633 180.785 326.78C180.998 326.927 181.252 327 181.545 327C181.772 327 181.985 326.967 182.185 326.9C182.398 326.833 182.585 326.733 182.745 326.6C182.905 326.453 183.032 326.273 183.125 326.06C183.218 325.847 183.265 325.593 183.265 325.3V322.66ZM193.056 315.82V325.44C193.056 325.92 193.17 326.267 193.396 326.48C193.636 326.68 193.963 326.78 194.376 326.78C194.696 326.78 194.97 326.747 195.196 326.68C195.436 326.6 195.65 326.487 195.836 326.34L196.196 328.44C195.863 328.68 195.443 328.867 194.936 329C194.43 329.133 193.91 329.2 193.376 329.2C192.616 329.2 191.956 329.093 191.396 328.88C190.85 328.667 190.423 328.327 190.116 327.86C189.823 327.393 189.67 326.773 189.656 326V316.76L193.056 315.82ZM196.036 319V321.42H187.936V319H196.036ZM199.307 317.84C198.613 317.84 198.107 317.713 197.787 317.46C197.48 317.193 197.327 316.78 197.327 316.22C197.327 315.647 197.48 315.233 197.787 314.98C198.107 314.713 198.613 314.58 199.307 314.58C199.987 314.58 200.487 314.713 200.807 314.98C201.127 315.233 201.287 315.647 201.287 316.22C201.287 316.78 201.127 317.193 200.807 317.46C200.487 317.713 199.987 317.84 199.307 317.84ZM201.007 319V329H197.607V319H201.007ZM208.187 318.8C209.24 318.8 210.16 319.007 210.947 319.42C211.747 319.82 212.367 320.413 212.807 321.2C213.26 321.973 213.487 322.907 213.487 324C213.487 325.093 213.26 326.033 212.807 326.82C212.367 327.593 211.747 328.187 210.947 328.6C210.16 329 209.24 329.2 208.187 329.2C207.16 329.2 206.247 329 205.447 328.6C204.647 328.187 204.02 327.593 203.567 326.82C203.127 326.033 202.907 325.093 202.907 324C202.907 322.907 203.127 321.973 203.567 321.2C204.02 320.413 204.647 319.82 205.447 319.42C206.247 319.007 207.16 318.8 208.187 318.8ZM208.187 321.22C207.8 321.22 207.467 321.313 207.187 321.5C206.907 321.687 206.694 321.987 206.547 322.4C206.4 322.813 206.327 323.347 206.327 324C206.327 324.653 206.4 325.187 206.547 325.6C206.694 326 206.907 326.3 207.187 326.5C207.467 326.687 207.8 326.78 208.187 326.78C208.587 326.78 208.927 326.687 209.207 326.5C209.487 326.3 209.7 326 209.847 325.6C209.994 325.187 210.067 324.653 210.067 324C210.067 323.347 209.994 322.813 209.847 322.4C209.7 321.987 209.487 321.687 209.207 321.5C208.927 321.313 208.587 321.22 208.187 321.22ZM215.4 329V319H218.44L218.62 322.44L218.24 322.06C218.373 321.34 218.606 320.74 218.94 320.26C219.286 319.78 219.713 319.42 220.22 319.18C220.74 318.927 221.32 318.8 221.96 318.8C222.653 318.8 223.253 318.933 223.76 319.2C224.28 319.467 224.686 319.86 224.98 320.38C225.273 320.9 225.42 321.553 225.42 322.34V329H222.02V323.24C222.02 322.547 221.886 322.067 221.62 321.8C221.353 321.533 221.013 321.4 220.6 321.4C220.28 321.4 219.98 321.48 219.7 321.64C219.42 321.787 219.2 322.027 219.04 322.36C218.88 322.693 218.8 323.14 218.8 323.7V329H215.4Z" fill="white"/>
<path d="M244.322 324.023L233 313.999" stroke="white"/>
<path d="M233 334L244.322 323.975" stroke="white"/>
</svg>
